<svg width="225" height="90" viewBox="0 0 225 90" fill="none" xmlns="http://www.w3.org/2000/svg">
<g filter="url(#filter0_d_1_10)">
<path d="M28.6719 19.2188C28.7344 18.7812 28.7656 18.1406 28.7656 17.2969C28.7656 16.4531 28.6016 15.6875 28.2734 15C27.9453 14.2969 27.5 13.75 26.9375 13.3594C25.9531 12.6875 24.4688 12.3516 22.4844 12.3516C20.5156 12.3516 18.7734 12.7109 17.2578 13.4297C15.7578 14.1328 14.5 15.125 13.4844 16.4062C11.4375 18.9844 10.4141 22.4922 10.4141 26.9297C10.4141 31.1328 11.4531 34.4844 13.5312 36.9844C15.6875 39.5938 18.6016 40.8984 22.2734 40.8984C25.8828 40.8984 28.6953 40.1094 30.7109 38.5312C31.3203 38.0625 31.875 37.5547 32.375 37.0078C32.8438 37.1484 33.2266 37.5625 33.5234 38.25C33.6172 38.4844 33.6641 38.7969 33.6641 39.1875C33.6641 39.5625 33.3828 40.125 32.8203 40.875C32.2734 41.6094 31.4688 42.3203 30.4062 43.0078C27.875 44.6641 24.8438 45.4922 21.3125 45.4922C16.25 45.4922 12.2188 43.9531 9.21875 40.875C6.25 37.8594 4.76562 33.8203 4.76562 28.7578C4.76562 25.6641 5.25781 22.875 6.24219 20.3906C7.22656 17.9062 8.57031 15.7969 10.2734 14.0625C11.9766 12.3125 13.9609 10.9688 16.2266 10.0312C18.5078 9.09375 20.7188 8.625 22.8594 8.625C25.0156 8.625 26.7422 8.80469 28.0391 9.16406C29.3359 9.52344 30.4141 10.0156 31.2734 10.6406C32.9922 11.9219 33.8516 13.625 33.8516 15.75C33.8516 17.375 33.25 18.5234 32.0469 19.1953C31.6406 19.4297 31.2031 19.5469 30.7344 19.5469C29.7656 19.5469 29.0781 19.4375 28.6719 19.2188ZM34.6522 32.0625C34.6522 30.1562 34.8397 28.4453 35.2147 26.9297C35.5897 25.4141 36.1053 24.0781 36.7616 22.9219C37.4178 21.7656 38.1912 20.7812 39.0819 19.9688C39.9725 19.1406 40.9256 18.4688 41.9412 17.9531C43.9256 16.9375 46.1053 16.4297 48.4803 16.4297C51.5272 16.4297 54.1131 17.5391 56.2381 19.7578C58.5975 22.1953 59.7772 25.4141 59.7772 29.4141C59.7772 34.6641 58.3475 38.75 55.4881 41.6719C53.0037 44.1875 50.0272 45.4453 46.5584 45.4453C42.9334 45.4453 40.0272 44.1719 37.8397 41.625C35.7147 39.1719 34.6522 35.9844 34.6522 32.0625ZM47.9412 41.625C48.9881 41.625 49.9256 41.3828 50.7537 40.8984C51.5819 40.3984 52.285 39.7188 52.8631 38.8594C54.0194 37.0781 54.5975 34.7656 54.5975 31.9219C54.5975 28.7969 53.9881 26.1406 52.7694 23.9531C51.3944 21.4375 49.4178 20.1797 46.8397 20.1797C44.7616 20.1797 43.0975 20.9766 41.8475 22.5703C40.5194 24.2578 39.8553 26.6172 39.8553 29.6484C39.8553 33.4453 40.6912 36.4453 42.3631 38.6484C43.8631 40.6328 45.7225 41.625 47.9412 41.625ZM64.8903 45C62.4997 45 61.3044 44.4531 61.3044 43.3594C61.3044 42.7812 61.4216 42.3438 61.6559 42.0469C62.0309 42.1719 62.3825 42.2344 62.7106 42.2344C64.07 42.2344 64.7731 41.4141 64.82 39.7734V10.4297C64.82 9.33594 64.7106 8.64063 64.4919 8.34375C64.1325 7.84375 63.5544 7.59375 62.7575 7.59375C62.3981 7.59375 62.0466 7.63281 61.7028 7.71094C61.3747 7.77344 61.1403 7.77344 60.9997 7.71094C60.8747 7.63281 60.7731 7.53125 60.695 7.40625C60.3825 6.89062 60.7731 6.23438 61.8669 5.4375C63.5856 4.17188 65.2809 3.53906 66.9528 3.53906C68.7341 3.53906 69.7341 4.5 69.9528 6.42188C70.0153 7 70.0466 7.60938 70.0466 8.25V39.8672C70.0934 41.0859 70.5387 41.8359 71.3825 42.1172C71.6325 42.1953 71.9216 42.2656 72.2497 42.3281C72.5934 42.3906 72.9059 42.4688 73.1872 42.5625C73.4684 42.6406 73.6872 42.7344 73.8434 42.8438C74.1091 43.0469 74.2419 43.375 74.2419 43.8281C74.2419 44.375 74.1169 44.8047 73.8669 45.1172C73.5544 45.0391 73.0544 45 72.3669 45H64.8903ZM77.8316 45C75.4409 45 74.2456 44.4531 74.2456 43.3594C74.2456 42.7812 74.3628 42.3438 74.5972 42.0469C74.9722 42.1719 75.3238 42.2344 75.6519 42.2344C77.0113 42.2344 77.7144 41.4141 77.7613 39.7734V10.4297C77.7613 9.33594 77.6519 8.64063 77.4331 8.34375C77.0738 7.84375 76.4956 7.59375 75.6988 7.59375C75.3394 7.59375 74.9878 7.63281 74.6441 7.71094C74.3159 7.77344 74.0816 7.77344 73.9409 7.71094C73.8159 7.63281 73.7144 7.53125 73.6363 7.40625C73.3238 6.89062 73.7144 6.23438 74.8081 5.4375C76.5269 4.17188 78.2222 3.53906 79.8941 3.53906C81.6753 3.53906 82.6753 4.5 82.8941 6.42188C82.9566 7 82.9878 7.60938 82.9878 8.25V39.8672C83.0347 41.0859 83.48 41.8359 84.3238 42.1172C84.5738 42.1953 84.8628 42.2656 85.1909 42.3281C85.5347 42.3906 85.8472 42.4688 86.1284 42.5625C86.4097 42.6406 86.6284 42.7344 86.7847 42.8438C87.0503 43.0469 87.1831 43.375 87.1831 43.8281C87.1831 44.375 87.0581 44.8047 86.8081 45.1172C86.4956 45.0391 85.9956 45 85.3081 45H77.8316ZM86.6712 32.3906C86.6712 30.5 86.8666 28.8203 87.2572 27.3516C87.6478 25.8828 88.1712 24.5703 88.8275 23.4141C89.4994 22.2422 90.2806 21.2188 91.1712 20.3438C92.0775 19.4688 93.0462 18.7422 94.0775 18.1641C96.1087 17.0078 98.1087 16.4297 100.077 16.4297C102.046 16.4297 103.624 16.7812 104.812 17.4844C105.999 18.1719 106.968 19.0938 107.718 20.25C109.109 22.4531 109.804 25.3828 109.804 29.0391C109.804 30.3984 109.234 31.0938 108.093 31.125L91.7337 31.4766C91.8275 34.8672 92.7025 37.375 94.3587 39C95.765 40.375 97.5853 41.0625 99.8197 41.0625C103.148 41.0625 105.851 40.3672 107.929 38.9766C108.07 38.9766 108.242 39.0938 108.445 39.3281C108.835 39.7969 109.031 40.2031 109.031 40.5469C109.031 41.2969 108.093 42.2578 106.218 43.4297C104.062 44.7734 101.546 45.4453 98.6712 45.4453C94.9212 45.4453 91.9759 44.25 89.8353 41.8594C87.7259 39.5156 86.6712 36.3594 86.6712 32.3906ZM91.8744 28.4531C96.3744 28.2344 100.492 27.9453 104.226 27.5859C104.398 22.6172 102.679 20.1328 99.0697 20.1328C97.0541 20.1328 95.4056 20.9141 94.1244 22.4766C92.9525 23.9141 92.2025 25.9062 91.8744 28.4531ZM128.019 24.9844L128.042 24.1406C128.042 23.8438 127.972 23.3438 127.831 22.6406C127.691 21.9219 127.238 21.3359 126.472 20.8828C125.722 20.4297 124.761 20.2031 123.589 20.2031C122.433 20.2031 121.402 20.5 120.495 21.0938C119.605 21.6719 118.878 22.4531 118.316 23.4375C117.253 25.3125 116.722 27.8203 116.722 30.9609C116.722 33.9297 117.441 36.3438 118.878 38.2031C120.347 40.1094 122.284 41.0625 124.691 41.0625C126.878 41.0625 128.972 40.4609 130.972 39.2578C131.456 38.9609 131.831 38.7031 132.097 38.4844C132.253 38.4844 132.433 38.6094 132.636 38.8594C133.027 39.3125 133.222 39.6797 133.222 39.9609C133.222 40.2266 133.113 40.5391 132.894 40.8984C132.675 41.2422 132.355 41.6172 131.933 42.0234C131.527 42.4141 131.034 42.8125 130.456 43.2188C129.878 43.625 129.23 43.9922 128.511 44.3203C126.87 45.0703 125.191 45.4453 123.472 45.4453C121.753 45.4453 120.144 45.1562 118.644 44.5781C117.159 43.9844 115.878 43.1172 114.8 41.9766C112.488 39.5547 111.331 36.2266 111.331 31.9922C111.331 27.1797 112.8 23.3125 115.738 20.3906C118.409 17.75 121.495 16.4297 124.995 16.4297C127.292 16.4297 129.206 16.9219 130.738 17.9062C132.347 18.9375 133.152 20.2969 133.152 21.9844C133.152 22.9062 132.948 23.6016 132.542 24.0703C131.839 24.8984 131.019 25.3125 130.081 25.3125C129.159 25.3125 128.472 25.2031 128.019 24.9844ZM141.991 29.0156L141.968 35.1797C141.968 37.7578 142.101 39.3125 142.366 39.8438C142.632 40.3594 142.944 40.6719 143.304 40.7812C143.663 40.875 144.124 40.9219 144.687 40.9219C145.249 40.9219 145.757 40.8828 146.21 40.8047C146.679 40.7109 147.116 40.5938 147.523 40.4531C147.929 40.3125 148.319 40.1562 148.694 39.9844L149.843 39.4922C150.108 39.3984 150.405 39.6719 150.733 40.3125C150.827 40.4844 150.874 40.6875 150.874 40.9219C150.874 41.1406 150.78 41.4297 150.593 41.7891C150.405 42.1484 150.038 42.5625 149.491 43.0312C148.96 43.4844 148.335 43.8906 147.616 44.25C146.054 45.0469 144.648 45.4453 143.398 45.4453C142.163 45.4453 141.155 45.375 140.374 45.2344C139.593 45.0938 138.929 44.8125 138.382 44.3906C137.257 43.5156 136.694 41.9141 136.694 39.5859V21.1406H134.374C133.89 21.1406 133.538 20.9844 133.319 20.6719C132.944 20.1875 132.757 19.7812 132.757 19.4531C132.757 18.9062 132.89 18.6016 133.155 18.5391C135.64 18.1172 137.398 16.2734 138.429 13.0078C138.726 12.0234 138.96 10.8594 139.132 9.51562C139.882 9.39063 140.444 9.32812 140.819 9.32812C141.21 9.32812 141.546 9.52344 141.827 9.91406C142.108 10.3047 142.241 10.7578 142.226 11.2734C142.226 11.7891 142.218 12.2734 142.202 12.7266C142.187 13.1797 142.171 13.6719 142.155 14.2031L142.062 17.4844H150.171C150.374 17.8438 150.476 18.2266 150.476 18.6328V19.3594C150.476 20.0156 150.124 20.5547 149.421 20.9766C148.718 21.3828 147.937 21.5859 147.077 21.5859C146.233 21.5859 145.624 21.5781 145.249 21.5625C144.89 21.5312 144.538 21.5 144.194 21.4688L143.163 21.3281C142.804 21.2969 142.421 21.2656 142.015 21.2344V21.4922L141.991 29.0156ZM156.362 12.0703C155.831 12.0703 155.339 11.9922 154.886 11.8359C154.448 11.6641 154.065 11.4219 153.737 11.1094C153.05 10.4531 152.706 9.57031 152.706 8.46094C152.706 7.39844 153.112 6.5 153.925 5.76562C154.706 5.03125 155.643 4.66406 156.737 4.66406C157.831 4.66406 158.706 4.99219 159.362 5.64844C160.018 6.30469 160.347 7.19531 160.347 8.32031C160.347 9.38281 159.956 10.2813 159.175 11.0156C158.409 11.7188 157.472 12.0703 156.362 12.0703ZM154.932 45C152.526 45 151.323 44.4531 151.323 43.3594C151.323 42.7969 151.448 42.3594 151.698 42.0469C152.073 42.1719 152.417 42.2344 152.729 42.2344C154.182 42.2344 154.893 41.3125 154.862 39.4688V23.7656C154.862 22.6719 154.706 21.9141 154.393 21.4922C154.097 21.0547 153.557 20.8359 152.776 20.8359C152.198 20.8359 151.675 20.9062 151.206 21.0469C150.925 21.0781 150.722 20.8594 150.597 20.3906C150.487 19.9688 150.55 19.6016 150.784 19.2891C151.018 18.9609 151.378 18.625 151.862 18.2812C152.362 17.9219 152.909 17.6094 153.503 17.3438C154.784 16.7344 155.854 16.4297 156.714 16.4297C157.573 16.4297 158.206 16.5547 158.612 16.8047C159.034 17.0547 159.354 17.3906 159.573 17.8125C159.917 18.5 160.089 19.6094 160.089 21.1406V39.8672C160.136 41.1016 160.581 41.8516 161.425 42.1172C161.659 42.1953 161.948 42.2656 162.292 42.3281C162.636 42.3906 162.94 42.4688 163.206 42.5625C163.487 42.6406 163.706 42.7344 163.862 42.8438C164.128 43.0469 164.261 43.375 164.261 43.8281C164.261 44.3906 164.143 44.8203 163.909 45.1172C163.581 45.0391 163.081 45 162.409 45H154.932ZM163.678 32.0625C163.678 30.1562 163.866 28.4453 164.241 26.9297C164.616 25.4141 165.132 24.0781 165.788 22.9219C166.444 21.7656 167.217 20.7812 168.108 19.9688C168.999 19.1406 169.952 18.4688 170.967 17.9531C172.952 16.9375 175.132 16.4297 177.507 16.4297C180.553 16.4297 183.139 17.5391 185.264 19.7578C187.624 22.1953 188.803 25.4141 188.803 29.4141C188.803 34.6641 187.374 38.75 184.514 41.6719C182.03 44.1875 179.053 45.4453 175.585 45.4453C171.96 45.4453 169.053 44.1719 166.866 41.625C164.741 39.1719 163.678 35.9844 163.678 32.0625ZM176.967 41.625C178.014 41.625 178.952 41.3828 179.78 40.8984C180.608 40.3984 181.311 39.7188 181.889 38.8594C183.046 37.0781 183.624 34.7656 183.624 31.9219C183.624 28.7969 183.014 26.1406 181.796 23.9531C180.421 21.4375 178.444 20.1797 175.866 20.1797C173.788 20.1797 172.124 20.9766 170.874 22.5703C169.546 24.2578 168.882 26.6172 168.882 29.6484C168.882 33.4453 169.717 36.4453 171.389 38.6484C172.889 40.6328 174.749 41.625 176.967 41.625ZM202.424 45.1172C202.112 45.0391 201.612 45 200.924 45H193.448C191.948 45 190.987 44.7344 190.565 44.2031C190.393 44 190.307 43.7656 190.307 43.5C190.307 42.8438 190.432 42.3594 190.682 42.0469C191.057 42.1719 191.479 42.2344 191.948 42.2344C192.432 42.2344 192.792 42.0391 193.026 41.6484C193.276 41.2578 193.393 40.5312 193.378 39.4688V24.1406C193.378 22.6719 193.104 21.7578 192.557 21.3984C192.338 21.2578 192.049 21.1875 191.69 21.1875C191.331 21.1875 191.042 21.2422 190.823 21.3516C190.62 21.4609 190.448 21.5391 190.307 21.5859C190.182 21.6328 190.073 21.6328 189.979 21.5859C189.885 21.5234 189.792 21.4375 189.698 21.3281C189.463 21.0781 189.346 20.8203 189.346 20.5547C189.346 20.2734 189.44 19.9844 189.628 19.6875C189.831 19.375 190.151 19.0234 190.588 18.6328C191.026 18.2266 191.526 17.8594 192.088 17.5312C193.354 16.7969 194.62 16.4297 195.885 16.4297C197.338 16.4297 198.198 17.3906 198.463 19.3125C198.542 19.875 198.588 20.4531 198.604 21.0469C200.932 19.0938 203.463 17.7031 206.198 16.875C207.182 16.5781 208.174 16.4297 209.174 16.4297C210.19 16.4297 211.151 16.5625 212.057 16.8281C212.979 17.0938 213.776 17.5234 214.448 18.1172C215.87 19.3672 216.581 21.3203 216.581 23.9766V39.8672C216.628 41.0859 217.081 41.8359 217.94 42.1172C218.174 42.1953 218.463 42.2656 218.807 42.3281C219.151 42.3906 219.456 42.4688 219.721 42.5625C220.003 42.6406 220.221 42.7344 220.378 42.8438C220.643 43.0469 220.776 43.375 220.776 43.8281C220.776 44.375 220.651 44.8047 220.401 45.1172C220.088 45.0391 219.588 45 218.901 45H211.424C209.924 45 208.963 44.7344 208.542 44.2031C208.37 44 208.284 43.7656 208.284 43.5C208.284 42.8438 208.409 42.3594 208.659 42.0469C209.034 42.1719 209.378 42.2344 209.69 42.2344C210.018 42.2344 210.292 42.1953 210.51 42.1172C210.729 42.0234 210.901 41.875 211.026 41.6719C211.245 41.2969 211.354 40.5625 211.354 39.4688V25.6406C211.354 22.9844 210.565 21.5 208.987 21.1875C208.503 21.0938 207.893 21.0469 207.159 21.0469C206.44 21.0469 205.643 21.1562 204.768 21.375C203.893 21.5938 203.073 21.875 202.307 22.2188C200.838 22.875 199.604 23.7031 198.604 24.7031V39.8672C198.651 41.0859 199.096 41.8359 199.94 42.1172C200.19 42.1953 200.479 42.2656 200.807 42.3281C201.151 42.3906 201.463 42.4688 201.745 42.5625C202.026 42.6406 202.245 42.7344 202.401 42.8438C202.667 43.0469 202.799 43.375 202.799 43.8281C202.799 44.375 202.674 44.8047 202.424 45.1172Z" fill="white"/>
</g>
<g filter="url(#filter1_d_1_10)">
<path d="M163.022 73.3427C162.65 73.2254 162.589 72.7506 162.733 72.3884C170.908 51.8809 170.662 54.7646 146.118 54.5625C146.019 54.5617 145.912 54.5507 145.824 54.5035C144.758 53.9286 148.193 51.6938 153.149 50.7255C175.188 47.4972 181.117 50.0292 168.701 68.5449C168.514 68.823 168.211 69.0832 167.985 69.3308C166.985 70.428 164.646 73.8549 163.022 73.3427Z" fill="#FF9900"/>
<path d="M159.265 59.7163C159.138 59.702 159.01 59.7269 158.89 59.7736C114.884 77.0075 76.3303 73.3169 35.6419 51.1445C35.4973 51.0657 35.3334 51.0183 35.1694 51.0334C33.8915 51.1511 33.6698 52.2993 35.0616 54.0603C70.2539 87.6232 129.509 88.8884 160.668 63.0958C160.802 62.9848 160.905 62.8401 160.958 62.6744C161.75 60.2024 159.887 59.7862 159.265 59.7163Z" fill="#FF9900"/>
</g>
<defs>
<filter id="filter0_d_1_10" x="0.765625" y="3.53906" width="224.01" height="49.9531" filterUnits="userSpaceOnUse" color-interpolation-filters="sRGB">
<feFlood flood-opacity="0" result="BackgroundImageFix"/>
<feColorMatrix in="SourceAlpha" type="matrix" values="0 0 0 0 0 0 0 0 0 0 0 0 0 0 0 0 0 0 127 0" result="hardAlpha"/>
<feOffset dy="4"/>
<feGaussianBlur stdDeviation="2"/>
<feComposite in2="hardAlpha" operator="out"/>
<feColorMatrix type="matrix" values="0 0 0 0 0 0 0 0 0 0 0 0 0 0 0 0 0 0 0.2 0"/>
<feBlend mode="normal" in2="BackgroundImageFix" result="effect1_dropShadow_1_10"/>
<feBlend mode="normal" in="SourceGraphic" in2="effect1_dropShadow_1_10" result="shape"/>
</filter>
<filter id="filter1_d_1_10" x="30.1106" y="49.5364" width="148.982" height="39.4679" filterUnits="userSpaceOnUse" color-interpolation-filters="sRGB">
<feFlood flood-opacity="0" result="BackgroundImageFix"/>
<feColorMatrix in="SourceAlpha" type="matrix" values="0 0 0 0 0 0 0 0 0 0 0 0 0 0 0 0 0 0 127 0" result="hardAlpha"/>
<feOffset dy="4"/>
<feGaussianBlur stdDeviation="2"/>
<feComposite in2="hardAlpha" operator="out"/>
<feColorMatrix type="matrix" values="0 0 0 0 0 0 0 0 0 0 0 0 0 0 0 0 0 0 0.2 0"/>
<feBlend mode="normal" in2="BackgroundImageFix" result="effect1_dropShadow_1_10"/>
<feBlend mode="normal" in="SourceGraphic" in2="effect1_dropShadow_1_10" result="shape"/>
</filter>
</defs>
</svg>
